<?xml version="1.0" encoding="UTF-8" standalone="no"?><!DOCTYPE svg PUBLIC "-//W3C//DTD SVG 1.1//EN" "http://www.w3.org/Graphics/SVG/1.1/DTD/svg11.dtd"><svg width="100%" height="100%" viewBox="0 0 500 500" version="1.1" xmlns="http://www.w3.org/2000/svg" xmlns:xlink="http://www.w3.org/1999/xlink" xml:space="preserve" xmlns:serif="http://www.serif.com/" style="fill-rule:evenodd;clip-rule:evenodd;stroke-linecap:round;stroke-linejoin:round;stroke-miterlimit:1.5;"><circle cx="250" cy="250" r="250" style="fill:#1e90ff;"/><clipPath id="_clip1"><circle cx="250" cy="250" r="250"/></clipPath><g clip-path="url(#_clip1)"><g><path d="M289.017,250l-206.144,103.386l-0,-206.772l206.144,103.386Z" style="fill:#f9f7f7;stroke:#f9f7f7;stroke-width:13.33px;"/><g><path d="M295.584,89.263c88.714,-0 160.738,72.024 160.738,160.737c-0,88.713 -72.024,160.737 -160.738,160.737l0,-321.474Z" style="fill:none;stroke:#f9f7f7;stroke-width:13.33px;"/><path d="M295.584,134.053c63.993,0 115.947,51.954 115.947,115.947c0,63.993 -51.954,115.947 -115.947,115.947l0,-231.894Z" style="fill:none;stroke:#f9f7f7;stroke-width:13.33px;"/><path d="M295.584,178.843c39.273,0 71.157,31.885 71.157,71.157c-0,39.272 -31.884,71.157 -71.157,71.157l0,-142.314Z" style="fill:none;stroke:#f9f7f7;stroke-width:13.33px;"/><path d="M295.584,0l0,410.737" style="fill:none;stroke:#f9f7f7;stroke-width:13.33px;"/></g></g></g></svg>